<svg version="1.1" id="Layer_1" xmlns="http://www.w3.org/2000/svg" xmlns:xlink="http://www.w3.org/1999/xlink" x="0px" y="0px"
	 width="100%" viewBox="0 0 592 592" enable-background="new 0 0 592 592" xml:space="preserve">
<path fill="#000000" opacity="1.000000" stroke="none" 
	d="
M476.467896,545.698486 
	C453.584290,554.122986 436.204041,545.750732 428.666412,522.863098 
	C425.421631,513.010498 424.204071,502.775024 423.655273,492.455688 
	C423.204590,483.981567 423.015228,475.487000 422.313690,467.034363 
	C421.205475,453.681702 415.441467,442.142792 407.710785,431.449585 
	C398.280151,418.404877 387.621277,406.599792 374.239807,397.418518 
	C364.058929,390.433167 353.636902,389.404633 342.844208,395.717010 
	C321.558929,408.166199 307.036469,425.786499 301.911407,450.313141 
	C299.892090,459.976807 302.070953,469.140503 306.397888,477.870178 
	C310.786896,486.725037 316.984344,494.420685 322.299194,502.681305 
	C326.948120,509.907013 330.631470,517.546143 331.880402,526.070801 
	C333.306183,535.802795 330.570496,544.292542 322.606354,550.477600 
	C315.398743,556.075134 307.363831,557.146606 299.171509,552.943542 
	C291.240417,548.874512 286.892944,541.672852 284.873505,533.341858 
	C279.235931,510.084503 274.664032,486.607422 271.789032,462.829926 
	C269.349823,442.656677 276.677246,425.623932 288.831940,410.139496 
	C294.195984,403.305969 299.860199,396.796173 306.627686,391.276428 
	C313.263123,385.864380 315.327789,378.581207 313.230896,370.596069 
	C311.081940,362.412842 305.023926,357.650360 296.737000,356.572266 
	C288.814697,355.541595 282.278748,358.773865 277.918884,365.464447 
	C275.112152,369.771606 272.765656,374.421051 270.603271,379.097595 
	C264.501984,392.292542 254.980560,401.425262 241.167572,406.594879 
	C227.528046,411.699585 215.674118,419.580170 207.777603,432.412872 
	C202.841141,440.435211 200.427048,449.142395 200.352097,458.472748 
	C200.218475,475.106079 201.096146,491.798889 197.305786,508.195129 
	C195.383560,516.510254 192.601669,524.509094 187.726852,531.634583 
	C177.855698,546.063171 160.472000,552.770752 143.921692,547.224426 
	C124.807648,540.818970 111.908882,527.848633 107.561829,507.662750 
	C105.507507,498.123352 109.661888,490.553772 118.423035,486.415100 
	C121.119202,485.141449 123.965981,484.092590 126.844971,483.315826 
	C141.647812,479.321930 152.299713,470.012512 160.579132,457.496185 
	C167.674911,446.769165 173.465347,435.320892 179.417587,423.958862 
	C188.905716,405.847351 203.368942,393.510742 222.592239,386.680420 
	C224.474380,386.011627 226.391510,385.425659 228.230530,384.653809 
	C239.475433,379.934174 244.278610,367.482880 239.183823,356.356720 
	C234.231018,345.540619 221.093063,340.859253 210.450760,346.143005 
	C209.261459,346.733521 208.037216,347.345642 207.022690,348.182404 
	C192.368713,360.267944 175.631577,361.325928 157.899002,357.745300 
	C140.105118,354.152283 123.072327,347.728088 105.345551,343.885620 
	C90.224670,340.608002 75.168930,339.208191 59.964455,343.437805 
	C46.554375,347.168304 38.571232,344.234039 34.307205,334.382416 
	C29.417921,323.086182 33.576126,308.685486 43.698906,302.583801 
	C53.114017,296.908691 63.277813,296.928223 73.672623,299.115234 
	C88.715424,302.280090 102.132507,309.253082 115.400772,316.646301 
	C123.839165,321.348297 132.420288,325.793457 140.914780,330.395599 
	C152.017136,336.410583 163.795212,337.177063 175.831696,334.477478 
	C189.504929,331.410858 201.923462,325.434082 213.090820,316.962494 
	C222.379501,309.916077 227.212341,301.088654 223.546310,289.148987 
	C216.567764,266.421051 203.303940,248.650925 181.533142,238.398376 
	C165.969528,231.069016 150.295807,233.721451 135.200821,240.649948 
	C121.734428,246.830917 108.509087,253.553314 93.882034,256.761261 
	C79.017532,260.021271 64.376633,260.543823 50.880928,252.179993 
	C38.675453,244.615753 32.636456,233.146912 31.675220,218.965988 
	C31.060284,209.893921 32.005650,201.021103 35.724545,192.579712 
	C37.279140,189.051010 39.127159,185.713882 41.548000,182.711807 
	C52.363155,169.300034 66.682564,168.417480 79.022789,180.461227 
	C80.923088,182.315872 82.674149,184.360382 84.266815,186.487350 
	C95.126411,200.990005 110.188080,207.913940 127.589180,210.646942 
	C140.456894,212.667923 153.423538,212.736374 166.409882,212.717010 
	C194.042633,212.675797 215.977127,223.843658 231.844879,246.574585 
	C237.242935,254.307449 244.370483,258.699463 253.891632,257.048798 
	C265.065918,255.111557 271.254547,248.540359 273.346741,237.707962 
	C275.041107,228.935211 269.014557,218.691406 258.707275,213.905685 
	C250.527206,210.107681 242.602417,205.918106 234.948807,201.170181 
	C226.297073,195.803040 218.088333,189.854950 210.346359,183.229095 
	C195.319916,170.368912 190.272354,152.763977 186.664490,134.373535 
	C184.490280,123.290894 182.142365,112.236580 179.583618,101.236740 
	C177.027512,90.248207 172.634232,80.109871 165.173782,71.391121 
	C162.008652,67.692154 157.817291,63.745167 160.658340,58.147472 
	C163.667770,52.218040 169.503586,50.130066 175.644165,49.740414 
	C193.575211,48.602592 205.683456,60.430336 206.388367,78.856575 
	C206.890106,91.971466 204.380920,104.741272 202.053726,117.441048 
	C199.001801,134.095718 204.326630,147.487747 215.213486,159.520355 
	C223.998154,169.229568 234.277054,177.153015 244.790268,184.812515 
	C249.502579,188.245697 254.114197,191.892212 259.140961,194.804123 
	C272.486664,202.535034 280.851654,214.154510 286.494812,228.145905 
	C288.290894,232.599045 289.912415,237.224335 293.923676,240.388351 
	C301.056976,246.014938 310.344604,246.120407 318.012268,240.608521 
	C325.075836,235.530899 327.944092,225.941986 324.585144,217.347443 
	C321.805176,210.234268 318.097687,203.511246 316.615479,195.874756 
	C314.422272,184.575241 316.829071,173.587997 319.105072,162.763794 
	C323.495453,141.884064 320.082855,123.544182 304.577179,108.035034 
	C299.651611,103.108368 295.112305,97.748856 291.419250,91.731163 
	C285.570496,82.200806 286.500275,72.955544 292.612518,64.119461 
	C301.685028,51.003895 321.991180,44.375408 337.200317,49.264141 
	C350.435333,53.518314 358.705902,65.545418 359.387878,80.582108 
	C360.158783,97.578850 355.332672,113.477959 350.573669,129.421646 
	C346.151642,144.236267 341.401367,158.965179 338.242981,174.119308 
	C333.190308,198.362564 351.555878,215.540787 375.433838,209.022354 
	C397.673737,202.951096 413.314606,182.718903 413.656769,159.656326 
	C413.830078,147.976212 411.500916,136.472458 411.345764,124.810883 
	C411.108673,106.991394 412.606354,89.529732 421.588837,73.596046 
	C428.102966,62.040981 437.168182,53.294930 449.962860,48.925755 
	C459.203461,45.770229 466.700775,48.893574 472.771942,55.859985 
	C478.883759,62.872963 481.422577,70.764282 477.325714,79.840874 
	C475.321411,84.281342 472.749207,88.406105 469.646515,92.088715 
	C455.079559,109.378151 445.423309,129.484375 436.143066,149.821640 
	C429.713470,163.911850 423.785217,178.230957 416.700104,192.021622 
	C409.531097,205.975540 399.582916,216.776978 384.507477,222.554398 
	C374.980682,226.205399 370.611664,233.705536 371.156219,243.219894 
	C371.640411,251.679749 376.859985,258.388641 384.952942,260.953278 
	C393.329865,263.607880 402.677460,260.457428 407.832397,252.885025 
	C410.543060,248.903152 412.698364,244.546844 415.181030,240.405518 
	C427.237030,220.294632 445.097809,213.347519 468.095795,215.148270 
	C488.742340,216.764877 509.568542,219.480911 530.266113,214.876328 
	C536.879761,213.404953 542.828308,210.546783 548.273499,206.571167 
	C549.081055,205.981583 549.871582,205.368698 550.679688,204.780045 
	C555.305176,201.410690 560.492676,198.612289 565.899109,201.791885 
	C571.741272,205.227707 572.442566,211.731125 571.761597,217.757111 
	C570.216003,231.433487 559.686096,241.031219 545.046936,243.387161 
	C530.459900,245.734695 516.640381,242.024658 502.730865,238.687775 
	C491.420410,235.974426 480.266876,232.601166 468.719849,230.883652 
	C456.683807,229.093414 446.305634,231.804474 438.092712,241.279343 
	C426.958496,254.124329 415.805237,266.948944 406.639496,281.332764 
	C405.120148,283.717102 403.696320,286.178253 402.428955,288.704529 
	C396.142670,301.235229 397.679871,311.835236 407.191925,322.154236 
	C423.324188,339.655060 447.034210,344.111053 468.872040,333.513489 
	C480.394379,327.921906 491.449951,321.368530 504.066376,318.230865 
	C520.497742,314.144379 536.869080,312.559387 553.140137,318.650879 
	C573.530029,326.284424 582.242188,346.860535 575.283203,367.202728 
	C571.299194,378.848541 561.428040,383.340302 549.747620,379.671875 
	C544.571228,378.046173 540.042053,375.254517 535.726624,372.131165 
	C523.712158,363.435577 510.272095,359.561340 495.528107,359.160553 
	C479.630249,358.728394 463.989288,361.056244 448.285980,362.778290 
	C425.178223,365.312256 405.873596,358.506561 391.450439,339.767395 
	C385.299286,331.775543 377.670990,327.761292 367.561584,330.486969 
	C358.649658,332.889801 353.634552,339.069427 351.734589,347.999603 
	C349.680084,357.656219 356.035736,367.901886 366.989594,371.805176 
	C384.923676,378.195831 400.594635,387.925903 413.023499,402.489166 
	C419.626648,410.226288 425.474854,418.547424 431.161255,426.976227 
	C442.338806,443.544373 452.398743,460.870117 464.865112,476.565155 
	C472.104248,485.679138 480.361969,493.381317 491.242065,498.183563 
	C500.074371,502.081940 503.261230,510.139038 500.727692,519.824036 
	C497.363831,532.682983 488.578705,540.486816 476.467896,545.698486 
M280.404572,296.758759 
	C275.773834,301.282806 271.036224,305.703491 266.537659,310.355377 
	C259.957947,317.159393 259.757233,326.992249 265.854248,333.795990 
	C271.926422,340.572021 282.579773,341.553406 289.639313,335.447418 
	C294.645874,331.117126 299.282654,326.290100 303.632355,321.291382 
	C307.135406,317.265564 308.626465,312.382904 306.966705,306.914642 
	C303.486877,295.450043 292.302032,290.878387 280.404572,296.758759 
M323.758942,291.970337 
	C329.746857,293.657104 335.396912,292.944000 340.113617,288.788208 
	C344.215332,285.174286 348.166779,281.321442 351.726685,277.180511 
	C355.228546,273.107208 356.659332,268.244019 354.952393,262.792725 
	C350.988800,250.134720 336.171295,246.011719 326.077759,254.930069 
	C322.852814,257.779541 319.899231,260.979919 317.096191,264.254913 
	C308.599426,274.182343 311.162598,285.821381 323.758942,291.970337 
z"/>
<path fill="#000000" opacity="1.000000" stroke="none" 
	d="
M361.679779,449.214386 
	C350.057068,452.564423 340.788513,447.570587 338.133392,436.853821 
	C335.774170,427.331390 342.252991,418.202515 352.727509,416.290222 
	C360.637115,414.846191 368.821716,419.778107 371.533447,427.622437 
	C374.576294,436.424561 371.107086,444.297485 361.679779,449.214386 
z"/>
<path fill="#000000" opacity="1.000000" stroke="none" 
	d="
M441.396423,275.482666 
	C451.129211,277.457886 457.277588,285.247040 456.040344,293.600983 
	C454.679108,302.792542 446.430969,309.316895 437.664856,308.136139 
	C427.708679,306.795074 421.755890,299.296875 422.705994,289.293823 
	C423.489777,281.041901 431.431122,275.018097 441.396423,275.482666 
z"/>
<path fill="#000000" opacity="1.000000" stroke="none" 
	d="
M167.500305,301.379547 
	C162.579224,293.637421 162.516785,287.142731 167.065491,281.187988 
	C171.218170,275.751709 178.629791,273.496155 185.402924,275.536072 
	C192.648117,277.718140 196.425369,282.852295 197.091461,290.087830 
	C197.694656,296.640167 194.624527,301.805084 189.048691,305.059143 
	C182.930191,308.629913 176.630783,308.208466 170.660294,304.373077 
	C169.562286,303.667725 168.709686,302.580383 167.500305,301.379547 
z"/>
<path fill="#000000" opacity="1.000000" stroke="none" 
	d="
M153.141251,380.348145 
	C163.595612,384.258789 168.088684,393.471680 164.100388,402.161713 
	C160.207336,410.644226 149.967758,413.895538 141.203918,409.431885 
	C134.576797,406.056580 131.294662,397.919464 133.683334,390.786713 
	C136.292068,382.996826 143.861649,378.797607 153.141251,380.348145 
z"/>
<path fill="#000000" opacity="1.000000" stroke="none" 
	d="
M438.501648,409.971985 
	C429.701965,405.377686 426.475922,396.573608 430.282654,388.394287 
	C433.584747,381.299164 443.290131,377.767548 450.780609,380.935333 
	C458.594666,384.239960 462.494690,392.938904 459.681915,400.789551 
	C456.699493,409.113708 448.249176,412.903595 438.501648,409.971985 
z"/>
<path fill="#000000" opacity="1.000000" stroke="none" 
	d="
M268.037354,172.322205 
	C258.530396,171.345032 252.974091,165.988831 252.684860,157.939178 
	C252.410522,150.303864 257.278259,144.199692 264.892761,142.630432 
	C272.612183,141.039536 279.916473,144.948944 282.545532,152.078583 
	C286.135681,161.814453 279.561584,171.268616 268.037354,172.322205 
z"/>
<path fill="#000000" opacity="1.000000" stroke="none" 
	d="
M368.612213,141.032135 
	C365.455994,134.692368 365.778015,128.905365 370.524078,124.106392 
	C374.356201,120.231522 379.145020,118.698601 384.700348,120.671768 
	C390.522278,122.739616 393.762878,126.812706 394.251099,132.828796 
	C394.715149,138.547745 391.883942,142.781723 387.018738,145.516312 
	C381.762695,148.470566 375.695068,147.784760 371.133209,143.970917 
	C370.251434,143.233749 369.577911,142.247482 368.612213,141.032135 
z"/>
<path fill="#000000" opacity="1.000000" stroke="none" 
	d="
M153.876587,166.317703 
	C157.050522,160.577499 161.849243,158.168610 167.763260,158.898087 
	C173.921066,159.657623 178.571854,162.850159 180.611984,169.168823 
	C182.135880,173.888641 180.617554,177.753708 177.399979,180.987808 
	C173.297394,185.111481 165.389832,185.429581 159.693222,182.022171 
	C154.077713,178.663284 151.923553,173.116455 153.876587,166.317703 
z"/>
<path fill="#000000" opacity="1.000000" stroke="none" 
	d="
M456.717834,174.704773 
	C460.470825,171.482620 464.504303,170.368530 469.020538,170.655899 
	C473.956116,170.969925 477.601807,173.237595 479.528107,177.790970 
	C481.406952,182.232101 481.027557,186.544815 477.949677,190.449295 
	C474.027710,195.424683 466.039825,197.366638 459.840729,194.841614 
	C454.971588,192.858292 452.287384,188.358307 452.690765,182.921066 
	C452.923737,179.780823 454.430359,177.260132 456.717834,174.704773 
z"/>
<path fill="#000000" opacity="1.000000" stroke="none" 
	d="
M241.128128,462.644226 
	C233.675018,461.615601 229.184769,456.377167 229.741257,449.787781 
	C230.273285,443.488007 235.777313,438.226410 241.934937,438.131256 
	C248.533188,438.029236 253.974258,443.215973 254.294861,449.913483 
	C254.618256,456.669342 250.173904,461.646271 243.002914,462.551025 
	C242.510422,462.613159 242.012405,462.631439 241.128128,462.644226 
z"/>
<path fill="#000000" opacity="1.000000" stroke="none" 
	d="
M145.490601,157.027405 
	C140.001877,157.929489 135.887390,156.308075 133.037064,152.014923 
	C131.388367,149.531662 130.933823,146.683319 132.508713,144.017120 
	C133.969147,141.544678 136.421341,140.590134 139.296402,140.682541 
	C143.597595,140.820801 146.988831,142.653931 149.236557,146.283600 
	C151.819824,150.455093 150.611404,154.058060 145.490601,157.027405 
z"/>
<path fill="#000000" opacity="1.000000" stroke="none" 
	d="
M494.925720,153.722046 
	C499.217255,154.237915 502.106506,156.155548 502.158447,160.257095 
	C502.213348,164.594833 499.744843,167.668518 495.707581,169.376526 
	C491.876404,170.997330 488.062073,170.995056 485.211487,167.779999 
	C482.356873,164.560410 483.232544,160.965103 485.803162,157.879120 
	C488.024231,155.212769 491.083130,154.003494 494.925720,153.722046 
z"/>
<path fill="#000000" opacity="1.000000" stroke="none" 
	d="
M237.394867,470.322632 
	C240.281357,471.995392 241.498108,474.213776 241.209412,477.140564 
	C240.817291,481.115662 236.921005,484.742157 233.533569,484.146484 
	C229.839157,483.496826 228.216949,480.992249 228.360748,477.361267 
	C228.548096,472.630890 231.719589,470.042389 237.394867,470.322632 
z"/>
</svg>